<?xml version="1.0" encoding="UTF-8"?>
<svg version="1.1" xmlns="http://www.w3.org/2000/svg" width="128" height="128">
<path d="M0 0 C42.24 0 84.48 0 128 0 C128 42.24 128 84.48 128 128 C85.76 128 43.52 128 0 128 C0 85.76 0 43.52 0 0 Z " fill="#FDFCFD" transform="translate(0,0)"/>
<path d="M0 0 C10.58707025 1.39502764 19.34750131 10.23624933 26.03515625 18.10546875 C29.73202637 23.0615348 30.60685663 28.47157427 29.82421875 34.50390625 C28.22570869 38.7399579 26.68122036 41.15322926 22.82421875 43.50390625 C20.203125 43.875 20.203125 43.875 17.38671875 43.94140625 C13.89272617 44.19230465 12.0176523 44.40101607 8.88671875 46.06640625 C4.89360445 50.78554133 2.97309259 55.74652633 1.44921875 61.69140625 C0.04713919 66.71875229 -1.80142416 68.71176343 -6.17578125 71.50390625 C-6.83578125 71.50390625 -7.49578125 71.50390625 -8.17578125 71.50390625 C-8.17578125 72.16390625 -8.17578125 72.82390625 -8.17578125 73.50390625 C-9.26890625 73.81328125 -10.36203125 74.12265625 -11.48828125 74.44140625 C-13.72986119 75.08728522 -15.96271635 75.76621795 -18.17578125 76.50390625 C-18.67078125 72.54390625 -18.67078125 72.54390625 -19.17578125 68.50390625 C-19.83578125 68.50390625 -20.49578125 68.50390625 -21.17578125 68.50390625 C-21.17578125 69.49390625 -21.17578125 70.48390625 -21.17578125 71.50390625 C-21.83578125 71.50390625 -22.49578125 71.50390625 -23.17578125 71.50390625 C-23.29953125 72.14328125 -23.42328125 72.78265625 -23.55078125 73.44140625 C-23.75703125 74.12203125 -23.96328125 74.80265625 -24.17578125 75.50390625 C-26.58123763 76.70663444 -28.12575078 76.60462097 -30.80078125 76.56640625 C-31.61804688 76.55738281 -32.4353125 76.54835938 -33.27734375 76.5390625 C-33.90382813 76.52746094 -34.5303125 76.51585938 -35.17578125 76.50390625 C-36.94040808 73.4158093 -37.17578125 72.27078489 -37.17578125 68.50390625 C-37.83578125 68.50390625 -38.49578125 68.50390625 -39.17578125 68.50390625 C-39.66492972 80.67564283 -39.66492972 80.67564283 -34.86328125 91.50390625 C-33.08084416 92.76762196 -33.08084416 92.76762196 -30.23828125 92.37890625 C-27.10745938 91.48438572 -25.46438523 90.79251023 -23.17578125 88.50390625 C-21.9073044 85.91892113 -21.9073044 85.91892113 -21.17578125 83.50390625 C-20.51578125 83.50390625 -19.85578125 83.50390625 -19.17578125 83.50390625 C-19.29551584 89.61037051 -19.29551584 89.61037051 -21.73046875 92.08203125 C-26.46996228 95.50390625 -26.46996228 95.50390625 -29.17578125 95.50390625 C-29.07265625 96.24640625 -28.96953125 96.98890625 -28.86328125 97.75390625 C-29.17578125 100.50390625 -29.17578125 100.50390625 -31.48828125 102.69140625 C-35.83442672 105.62252761 -39.28997773 107.23258418 -44.36328125 108.62890625 C-45.01748047 108.81066406 -45.67167969 108.99242188 -46.34570312 109.1796875 C-47.95440468 109.62589669 -49.56492256 110.0655484 -51.17578125 110.50390625 C-44.09501874 110.91241178 -37.97652166 109.40811356 -31.17578125 107.50390625 C-31.50578125 108.49390625 -31.83578125 109.48390625 -32.17578125 110.50390625 C-39.33446636 113.68909501 -46.39966884 115.03110031 -54.17578125 114.50390625 C-54.50578125 113.18390625 -54.83578125 111.86390625 -55.17578125 110.50390625 C-51.54558716 107.3298622 -47.52079362 105.97019867 -43.05078125 104.37890625 C-38.03410592 102.63013885 -38.03410592 102.63013885 -33.17578125 100.50390625 C-33.62086166 95.45966157 -35.7855905 93.05947216 -39.17578125 89.50390625 C-39.83578125 89.50390625 -40.49578125 89.50390625 -41.17578125 89.50390625 C-41.50578125 90.49390625 -41.83578125 91.48390625 -42.17578125 92.50390625 C-44.2421875 93.234375 -44.2421875 93.234375 -46.73828125 93.69140625 C-47.56457031 93.84996094 -48.39085937 94.00851563 -49.2421875 94.171875 C-50.19931641 94.33623047 -50.19931641 94.33623047 -51.17578125 94.50390625 C-51.17578125 93.84390625 -51.17578125 93.18390625 -51.17578125 92.50390625 C-49.19578125 91.51390625 -49.19578125 91.51390625 -47.17578125 90.50390625 C-48.49578125 90.17390625 -49.81578125 89.84390625 -51.17578125 89.50390625 C-51.17578125 88.51390625 -51.17578125 87.52390625 -51.17578125 86.50390625 C-48.20578125 86.50390625 -45.23578125 86.50390625 -42.17578125 86.50390625 C-42.18738281 85.23933594 -42.19898438 83.97476563 -42.2109375 82.671875 C-42.22031691 81.01172023 -42.22941695 79.35156386 -42.23828125 77.69140625 C-42.25084961 76.44133789 -42.25084961 76.44133789 -42.26367188 75.16601562 C-42.26689453 74.36357422 -42.27011719 73.56113281 -42.2734375 72.734375 C-42.27867432 71.99598389 -42.28391113 71.25759277 -42.28930664 70.49682617 C-42.17578125 68.50390625 -42.17578125 68.50390625 -41.17578125 65.50390625 C-39.52578125 65.83390625 -37.87578125 66.16390625 -36.17578125 66.50390625 C-35.51578125 69.14390625 -34.85578125 71.78390625 -34.17578125 74.50390625 C-29.72078125 74.00890625 -29.72078125 74.00890625 -25.17578125 73.50390625 C-24.18578125 70.53390625 -23.19578125 67.56390625 -22.17578125 64.50390625 C-20.85578125 64.83390625 -19.53578125 65.16390625 -18.17578125 65.50390625 C-16.42578125 68.56640625 -16.42578125 68.56640625 -15.17578125 71.50390625 C-13.7320059 71.13161198 -12.29579028 70.72993757 -10.86328125 70.31640625 C-10.06277344 70.09597656 -9.26226562 69.87554687 -8.4375 69.6484375 C-3.5625777 67.18150791 -2.23235414 61.37445661 -0.30078125 56.56640625 C2.3827195 50.09645823 4.88184639 45.46548782 10.82421875 41.50390625 C13.59837695 41.20743133 16.34470575 41.12642229 19.1328125 41.04296875 C22.59572647 40.34938076 23.7671415 39.355111 25.82421875 36.50390625 C26.733144 31.365258 26.35476693 26.22818782 24.82421875 21.25390625 C19.01474681 13.26588234 9.93535468 4.24503547 -0.17578125 2.50390625 C-5.38392283 2.11811798 -8.79964521 2.55255869 -13.17578125 5.50390625 C-15.9246682 9.75218608 -15.36730395 14.62007738 -15.17578125 19.50390625 C-12.86578125 19.17390625 -10.55578125 18.84390625 -8.17578125 18.50390625 C-8.17578125 19.16390625 -8.17578125 19.82390625 -8.17578125 20.50390625 C-11.17578125 22.50390625 -11.17578125 22.50390625 -13.73828125 22.25390625 C-16.17578125 21.50390625 -16.17578125 21.50390625 -18.17578125 19.50390625 C-19.04024565 13.89050105 -18.29830402 9.29920908 -15.17578125 4.50390625 C-11.02889565 -0.80138166 -6.26857534 -0.28922592 0 0 Z " fill="#82767E" transform="translate(71.17578125,-0.50390625)"/>
<path d="M0 0 C0.33 0.66 0.66 1.32 1 2 C1.66 2.33 2.32 2.66 3 3 C2.67 3.99 2.34 4.98 2 6 C1.35351709 13.80752433 1.97879773 19.3962632 6.3125 26 C8.09493709 27.26371571 8.09493709 27.26371571 10.9375 26.875 C14.06832187 25.98047947 15.71139602 25.28860398 18 23 C19.26847685 20.41501488 19.26847685 20.41501488 20 18 C20.66 18 21.32 18 22 18 C21.88026541 24.10646426 21.88026541 24.10646426 19.4453125 26.578125 C14.70581897 30 14.70581897 30 12 30 C12.103125 30.7425 12.20625 31.485 12.3125 32.25 C12 35 12 35 9.6875 37.1875 C5.34135453 40.11862136 1.88580352 41.72867793 -3.1875 43.125 C-3.84169922 43.30675781 -4.49589844 43.48851562 -5.16992188 43.67578125 C-6.77862343 44.12199044 -8.38914131 44.56164215 -10 45 C-2.91923749 45.40850553 3.19925959 43.90420731 10 42 C9.67 42.99 9.34 43.98 9 45 C1.84131489 48.18518876 -5.22388759 49.52719406 -13 49 C-13.33 47.68 -13.66 46.36 -14 45 C-10.36980591 41.82595595 -6.34501237 40.46629242 -1.875 38.875 C3.14167533 37.1262326 3.14167533 37.1262326 8 35 C7.55491959 29.95575532 5.39019075 27.55556591 2 24 C1.34 24 0.68 24 0 24 C-0.33 24.99 -0.66 25.98 -1 27 C-3.06640625 27.73046875 -3.06640625 27.73046875 -5.5625 28.1875 C-6.38878906 28.34605469 -7.21507812 28.50460938 -8.06640625 28.66796875 C-8.70449219 28.77753906 -9.34257812 28.88710937 -10 29 C-10 28.34 -10 27.68 -10 27 C-8.68 26.34 -7.36 25.68 -6 25 C-7.32 24.67 -8.64 24.34 -10 24 C-10 23.01 -10 22.02 -10 21 C-7.03 21 -4.06 21 -1 21 C-1.01160156 19.73542969 -1.02320313 18.47085938 -1.03515625 17.16796875 C-1.04453566 15.50781398 -1.0536357 13.84765761 -1.0625 12.1875 C-1.07087891 11.35412109 -1.07925781 10.52074219 -1.08789062 9.66210938 C-1.09111328 8.85966797 -1.09433594 8.05722656 -1.09765625 7.23046875 C-1.10289307 6.49207764 -1.10812988 5.75368652 -1.11352539 4.99291992 C-1 3 -1 3 0 0 Z " fill="#857981" transform="translate(30,65)"/>
<path d="M0 0 C3 1 3 1 4.6875 3.875 C8.08163612 12.69257055 5.81053897 22.32342787 3 31 C2.65807617 31.60150879 2.31615234 32.20301758 1.96386719 32.82275391 C0.77871758 35.49984718 0.74485259 37.54213747 0.7265625 40.46484375 C0.7059375 41.51220703 0.6853125 42.55957031 0.6640625 43.63867188 C0.63806801 45.83390616 0.61981048 48.02924599 0.609375 50.22460938 C0.43114418 58.2796521 0.43114418 58.2796521 -1.8984375 62.171875 C-6.67551499 66.32739966 -10.93854864 66.20547293 -17 66 C-16.76476049 62.11854812 -15.55618556 60.3739633 -12.9375 57.6875 C-10.62374418 55.11666019 -9.51216873 53.42504714 -9.3125 49.9375 C-10.34116443 44.04605828 -13.53171544 41.43413841 -17.6875 37.375 C-20.91956588 34.05558099 -21.93003281 32.23701989 -22.1953125 27.546875 C-22.17210938 26.29390625 -22.14890625 25.0409375 -22.125 23.75 C-22.10695313 22.48671875 -22.08890625 21.2234375 -22.0703125 19.921875 C-22.03550781 18.47554687 -22.03550781 18.47554687 -22 17 C-21.34 16.67 -20.68 16.34 -20 16 C-20.03480469 16.71285156 -20.06960937 17.42570312 -20.10546875 18.16015625 C-20.32008525 25.75349245 -19.97974258 30.78501459 -14.625 36.5625 C-13.75875 37.366875 -12.8925 38.17125 -12 39 C-6.31547723 45.3831792 -6.31547723 45.3831792 -5.5 49.5625 C-6.17130014 54.1776885 -8.41719193 56.53799769 -11.37109375 60.046875 C-13.04913385 61.90708255 -13.04913385 61.90708255 -14 64 C-12.53932801 63.54917531 -11.08151968 63.08906463 -9.625 62.625 C-8.81289062 62.36976562 -8.00078125 62.11453125 -7.1640625 61.8515625 C-4.83540815 61.10145717 -4.83540815 61.10145717 -3 59 C-2.69450094 56.70793884 -2.69450094 56.70793884 -2.7265625 54.046875 C-2.70843506 53.04188965 -2.69030762 52.0369043 -2.67163086 51.00146484 C-2.65624268 49.92848145 -2.64085449 48.85549805 -2.625 47.75 C-2.40986034 39.24602491 -1.56968618 32.23594721 1.13671875 24.17578125 C3.27588873 16.30634598 2.90386593 7.62264806 0 0 Z " fill="#90848C" transform="translate(105,47)"/>
<path d="M0 0 C0.495 1.485 0.495 1.485 1 3 C-3.55485616 7.77503048 -7.46084237 10.32460938 -13.8125 12.25 C-18.44208869 13.71393667 -18.44208869 13.71393667 -21.18359375 17.40234375 C-21.56759434 19.29056736 -21.91818344 21.18583691 -22.23828125 23.0859375 C-23.98257263 29.75897016 -29.40196881 34.31178518 -35.01171875 37.95703125 C-40.43805589 40.86424073 -44.82404957 42.84217506 -51 42 C-50.73828385 38.35650068 -50.59686503 36.55011604 -47.85546875 34.0234375 C-46.53482422 33.20746094 -46.53482422 33.20746094 -45.1875 32.375 C-41.71256193 30.18840677 -38.67338768 28.1487938 -36 25 C-35.66551741 21.832168 -35.66551741 21.832168 -36 19 C-34.68 19.66 -33.36 20.32 -32 21 C-32.14696181 25.84973981 -34.62344708 28.12947341 -37.94921875 31.296875 C-40.59283948 33.49233907 -43.38968773 35.20979018 -46.3984375 36.859375 C-48.32567029 37.9948579 -48.32567029 37.9948579 -49 41 C-35.14583366 35.833698 -35.14583366 35.833698 -26 25 C-24.95305662 22.15606426 -23.9790156 19.3339406 -23.15234375 16.41796875 C-21.18020423 12.27981838 -17.63251717 11.26450718 -13.5625 9.5625 C-8.19820866 7.20974064 -3.98328468 4.28969119 0 0 Z " fill="#74676F" transform="translate(84,86)"/>
<path d="M0 0 C3 1 3 1 4.6875 3.875 C8.08163612 12.69257055 5.81053897 22.32342787 3 31 C2.649375 31.62519531 2.29875 32.25039062 1.9375 32.89453125 C0.56667572 35.97317411 0.56101878 38.90166193 0.375 42.25 C0.30023438 43.51328125 0.22546875 44.7765625 0.1484375 46.078125 C0.09945312 47.04234375 0.05046875 48.0065625 0 49 C-0.33 49 -0.66 49 -1 49 C-2.26658677 39.94115113 -1.75273427 33.19937118 1.06640625 24.52734375 C3.19352215 16.49058366 2.96755004 7.78981884 0 0 Z " fill="#8A7C85" transform="translate(105,47)"/>
<path d="M0 0 C5.54771326 0.76365284 9.62878641 2.90234512 13.859375 6.53125 C14.354375 7.52125 14.354375 7.52125 14.859375 8.53125 C11.97530424 8.06979868 9.8382168 7.00256255 7.359375 5.53125 C2.45080706 2.6609857 -1.38367675 2.13421909 -7.140625 2.53125 C-10.57143833 3.76116421 -12.52121674 4.57398269 -14.515625 7.65625 C-15.38085442 11.63630532 -15.29966463 15.47573953 -15.140625 19.53125 C-11.675625 19.03625 -11.675625 19.03625 -8.140625 18.53125 C-8.140625 19.19125 -8.140625 19.85125 -8.140625 20.53125 C-11.140625 22.53125 -11.140625 22.53125 -13.703125 22.28125 C-16.140625 21.53125 -16.140625 21.53125 -18.140625 19.53125 C-19.0050894 13.9178448 -18.26314777 9.32655283 -15.140625 4.53125 C-11.00266902 -0.76261388 -6.25718163 -0.25369005 0 0 Z " fill="#72686F" transform="translate(71.140625,-0.53125)"/>
<path d="M0 0 C1.32 0.66 2.64 1.32 4 2 C3.85303819 6.84973981 1.37655292 9.12947341 -1.94921875 12.296875 C-4.59283948 14.49233907 -7.38968773 16.20979018 -10.3984375 17.859375 C-12.32567029 18.9948579 -12.32567029 18.9948579 -13 22 C-12.22914062 21.6390625 -11.45828125 21.278125 -10.6640625 20.90625 C-9.66117188 20.4421875 -8.65828125 19.978125 -7.625 19.5 C-6.62726562 19.0359375 -5.62953125 18.571875 -4.6015625 18.09375 C-2 17 -2 17 0 17 C-1 20 -1 20 -4.125 21.6875 C-7.79357134 23.14581407 -11.05393993 23.24159551 -15 23 C-14.73828385 19.35650068 -14.59686503 17.55011604 -11.85546875 15.0234375 C-10.97503906 14.47945312 -10.09460937 13.93546875 -9.1875 13.375 C-5.71256193 11.18840677 -2.67338768 9.1487938 0 6 C0.33448259 2.832168 0.33448259 2.832168 0 0 Z " fill="#7E6E76" transform="translate(48,105)"/>
<path d="M0 0 C4.56340054 0.47653209 6.53927242 2.04668158 9.6875 5.3125 C10.83798828 6.48232422 10.83798828 6.48232422 12.01171875 7.67578125 C14.90172054 11.05407411 16.00932828 12.71269776 15.9765625 17.234375 C15.86054687 18.39453125 15.74453125 19.5546875 15.625 20.75 C15.45871094 22.50570313 15.45871094 22.50570313 15.2890625 24.296875 C15.14597656 25.63492188 15.14597656 25.63492188 15 27 C14.67 27 14.34 27 14 27 C13.96261719 26.27554688 13.92523438 25.55109375 13.88671875 24.8046875 C13.15801524 14.08845944 9.67920688 9.23899757 2 2 C1.34 1.34 0.68 0.68 0 0 Z " fill="#8C7F87" transform="translate(84,8)"/>
<path d="M0 0 C0.33 0 0.66 0 1 0 C3.18075802 16.90087464 3.18075802 16.90087464 0.3125 22 C-4.28334943 25.9747887 -8.01184851 26.23482947 -14 26 C-13.505 24.515 -13.505 24.515 -13 23 C-13 23.66 -13 24.32 -13 25 C-11.55903414 24.57405412 -10.12231288 24.13373367 -8.6875 23.6875 C-7.48673828 23.32205078 -7.48673828 23.32205078 -6.26171875 22.94921875 C-3.78982483 21.91179177 -2.67740085 21.07319206 -1 19 C-0.49945249 16.88384156 -0.49945249 16.88384156 -0.48828125 14.55078125 C-0.45283203 13.70322266 -0.41738281 12.85566406 -0.38085938 11.98242188 C-0.34702148 10.66081055 -0.34702148 10.66081055 -0.3125 9.3125 C-0.27833984 8.41982422 -0.24417969 7.52714844 -0.20898438 6.60742188 C-0.12654352 4.40507329 -0.05738449 2.20312062 0 0 Z " fill="#73666E" transform="translate(103,87)"/>
<path d="M0 0 C0.33 0 0.66 0 1 0 C0.96519531 0.71285156 0.93039063 1.42570312 0.89453125 2.16015625 C0.67680923 9.86336876 1.06287633 14.84259205 6.5 20.6875 C7.325 21.450625 8.15 22.21375 9 23 C10.02813611 24.31175986 11.04084432 25.6369893 12 27 C8.40795658 27 7.10735472 25.88073544 4.49609375 23.5234375 C-0.5385999 18.39672595 -1.2477965 14.70643851 -1.3125 7.625 C-1.18367347 1.18367347 -1.18367347 1.18367347 0 0 Z " fill="#796C74" transform="translate(84,63)"/>
<path d="M0 0 C-0.4375 2.875 -0.4375 2.875 -2 6 C-4.93581453 7.15929788 -7.87498361 7.62705566 -11 8 C-11 7.34 -11 6.68 -11 6 C-9.68 5.34 -8.36 4.68 -7 4 C-8.32 3.67 -9.64 3.34 -11 3 C-11 2.01 -11 1.02 -11 0 C-9.54263913 -0.19491452 -8.08405407 -0.38069358 -6.625 -0.5625 C-5.81289063 -0.66691406 -5.00078125 -0.77132812 -4.1640625 -0.87890625 C-2 -1 -2 -1 0 0 Z " fill="#C1B6BE" transform="translate(31,86)"/>
<path d="M0 0 C0.66 0 1.32 0 2 0 C2.29003091 5.60726423 2.13444318 9.1241995 -1 14 C-4.42094242 16.28062828 -5.68187222 16.21925007 -9.6875 16.125 C-11.17830078 16.09792969 -11.17830078 16.09792969 -12.69921875 16.0703125 C-13.45847656 16.04710938 -14.21773438 16.02390625 -15 16 C-15 15.67 -15 15.34 -15 15 C-14.40832031 14.98582031 -13.81664063 14.97164062 -13.20703125 14.95703125 C-9.04286392 14.70568673 -6.53104498 14.35402999 -3 12 C-0.36750009 8.05125014 -0.11181324 4.66566172 0 0 Z " fill="#756971" transform="translate(99,26)"/>
<path d="M0 0 C0.33 0.66 0.66 1.32 1 2 C1.66 2.33 2.32 2.66 3 3 C2.67 3.99 2.34 4.98 2 6 C1.93062938 8.22818441 1.91542916 10.45834524 1.9375 12.6875 C1.95103516 14.45673828 1.95103516 14.45673828 1.96484375 16.26171875 C1.97644531 17.16535156 1.98804688 18.06898437 2 19 C1.01 19.33 0.02 19.66 -1 20 C-1.02696009 17.2291017 -1.04681952 14.4584655 -1.0625 11.6875 C-1.07087891 10.90181641 -1.07925781 10.11613281 -1.08789062 9.30664062 C-1.09111328 8.54931641 -1.09433594 7.79199219 -1.09765625 7.01171875 C-1.10289307 6.31522217 -1.10812988 5.61872559 -1.11352539 4.90112305 C-1 3 -1 3 0 0 Z " fill="#8E828B" transform="translate(30,65)"/>
<path d="M0 0 C1.125 1.75 1.125 1.75 2 4 C0.95456981 7.44991964 -0.99112894 9.11945559 -4 11 C-4.66 11 -5.32 11 -6 11 C-6 11.66 -6 12.32 -6 13 C-8.31 12.67 -10.62 12.34 -13 12 C-13 11.67 -13 11.34 -13 11 C-12.38511719 10.84144531 -11.77023438 10.68289062 -11.13671875 10.51953125 C-5.90248478 9.08283662 -5.90248478 9.08283662 -2 5.5 C-1.27549726 3.68874316 -0.61689185 1.85067555 0 0 Z " fill="#8B8188" transform="translate(69,60)"/>
<path d="M0 0 C0.66 0 1.32 0 2 0 C1.8794926 6.14587738 1.8794926 6.14587738 -0.625 8.578125 C-2.37787717 9.80796624 -4.13740456 10.94469135 -6 12 C-8 11 -8 11 -9 9 C-8.071875 8.62875 -7.14375 8.2575 -6.1875 7.875 C-2.4739697 5.69057041 -1.57312496 3.93281241 0 0 Z " fill="#90848C" transform="translate(50,83)"/>
<path d="M0 0 C-0.33 0.66 -0.66 1.32 -1 2 C-0.34 2.33 0.32 2.66 1 3 C-1.99480917 3.8723412 -4.63575911 4.10829766 -7.75 4.0625 C-8.54921875 4.05347656 -9.3484375 4.04445313 -10.171875 4.03515625 C-10.77515625 4.02355469 -11.3784375 4.01195313 -12 4 C-9.00076728 0.66140456 -4.39389336 -2.19694668 0 0 Z " fill="#EFE7EE" transform="translate(31,107)"/>
<path d="M0 0 C3 1 3 1 4.2109375 2.609375 C5.31669171 5.95948182 4.9488796 8.75210033 4.625 12.25 C4.51414062 13.51328125 4.40328125 14.7765625 4.2890625 16.078125 C4.14597656 17.52445313 4.14597656 17.52445313 4 19 C3.67 19 3.34 19 3 19 C2.95101562 18.21496094 2.90203125 17.42992188 2.8515625 16.62109375 C2.4379964 10.80977697 1.88217852 5.521057 0 0 Z " fill="#9E9098" transform="translate(105,47)"/>
<path d="M0 0 C1.32 0.33 2.64 0.66 4 1 C4.66 3.97 5.32 6.94 6 10 C7.98 10 9.96 10 12 10 C12 10.33 12 10.66 12 11 C9.69 11 7.38 11 5 11 C4.80664062 10.43410156 4.61328125 9.86820313 4.4140625 9.28515625 C4.15367188 8.55167969 3.89328125 7.81820312 3.625 7.0625 C3.24214844 5.96615234 3.24214844 5.96615234 2.8515625 4.84765625 C2.14728587 2.81317884 2.14728587 2.81317884 0 2 C0 1.34 0 0.68 0 0 Z " fill="#72676F" transform="translate(31,65)"/>
<path d="M0 0 C3.97700909 1.65083396 6.88867256 3.77289115 10.3125 6.375 C7.3125 7.375 7.3125 7.375 5.41015625 6.44921875 C4.73855469 5.99160156 4.06695312 5.53398438 3.375 5.0625 C0.74996328 3.2973019 -1.82946593 1.73688201 -4.6875 0.375 C-2.6875 -0.625 -2.6875 -0.625 0 0 Z " fill="#7B7078" transform="translate(75.6875,0.625)"/>
<path d="M0 0 C0.33 0.99 0.66 1.98 1 3 C-1.64 5.31 -4.28 7.62 -7 10 C-7.99 9.34 -8.98 8.68 -10 8 C-8.63875 7.13375 -8.63875 7.13375 -7.25 6.25 C-4.47977054 4.33214884 -2.28054501 2.45597155 0 0 Z " fill="#80747D" transform="translate(84,86)"/>
<path d="M0 0 C0.66 0 1.32 0 2 0 C2.33 1.65 2.66 3.3 3 5 C4.32 5.33 5.64 5.66 7 6 C3.25 9 3.25 9 1 9 C0.67 6.03 0.34 3.06 0 0 Z " fill="#786A73" transform="translate(52,67)"/>
<path d="M0 0 C-1 3 -1 3 -2.84765625 3.94921875 C-3.57855469 4.19285156 -4.30945312 4.43648438 -5.0625 4.6875 C-6.16271484 5.06455078 -6.16271484 5.06455078 -7.28515625 5.44921875 C-7.85105469 5.63097656 -8.41695312 5.81273438 -9 6 C-9.66 5.34 -10.32 4.68 -11 4 C-9.5437455 3.32880451 -8.08492133 2.66318193 -6.625 2 C-5.81289063 1.62875 -5.00078125 1.2575 -4.1640625 0.875 C-2 0 -2 0 0 0 Z " fill="#887881" transform="translate(48,122)"/>
<path d="M0 0 C-0.33 0.99 -0.66 1.98 -1 3 C-2.99609375 3.80078125 -2.99609375 3.80078125 -5.4375 4.3125 C-6.24058594 4.49425781 -7.04367188 4.67601563 -7.87109375 4.86328125 C-8.92490234 4.93095703 -8.92490234 4.93095703 -10 5 C-10.66 4.34 -11.32 3.68 -12 3 C-10.37604003 2.49663233 -8.75079459 1.99741024 -7.125 1.5 C-6.22007813 1.2215625 -5.31515625 0.943125 -4.3828125 0.65625 C-2 0 -2 0 0 0 Z " fill="#887B83" transform="translate(40,107)"/>
<path d="M0 0 C0.66 0 1.32 0 2 0 C4.09350689 3.4019487 4.17942163 6.05272412 4 10 C3.01 10 2.02 10 1 10 C0.67 6.7 0.34 3.4 0 0 Z " fill="#998B95" transform="translate(95,90)"/>
<path d="M0 0 C0 0.33 0 0.66 0 1 C-0.61488281 1.10957031 -1.22976562 1.21914063 -1.86328125 1.33203125 C-2.67152344 1.49058594 -3.47976562 1.64914063 -4.3125 1.8125 C-5.51326172 2.03873047 -5.51326172 2.03873047 -6.73828125 2.26953125 C-9.25430815 3.08213407 -10.22594766 4.10108767 -12 6 C-12.66 6 -13.32 6 -14 6 C-13.0114653 3.30399627 -12.34022364 2.19441351 -9.8125 0.75 C-6.45769347 -0.14461507 -3.45702902 -0.13556977 0 0 Z " fill="#E5DDE3" transform="translate(71,1)"/>
<path d="M0 0 C0.99 0.33 1.98 0.66 3 1 C1.515 3.475 1.515 3.475 0 6 C1.32 6.33 2.64 6.66 4 7 C2.02 7 0.04 7 -2 7 C-1.125 1.125 -1.125 1.125 0 0 Z " fill="#766671" transform="translate(35,121)"/>
<path d="M0 0 C1.98 0.99 1.98 0.99 4 2 C3.67 3.65 3.34 5.3 3 7 C2.01 7 1.02 7 0 7 C0 4.69 0 2.38 0 0 Z " fill="#897C85" transform="translate(48,105)"/>
<path d="M0 0 C0.33 0 0.66 0 1 0 C1.3125 2.6875 1.3125 2.6875 1 6 C-1.5 8.875 -1.5 8.875 -4 11 C-4 10.01 -4 9.02 -4 8 C-3.525625 7.54625 -3.05125 7.0925 -2.5625 6.625 C-0.55416651 4.53633317 -0.38130476 2.8216552 0 0 Z " fill="#776B72" transform="translate(97,95)"/>
<path d="M0 0 C-1.269553 0.64834654 -2.54069706 1.29357815 -3.8125 1.9375 C-4.52019531 2.29714844 -5.22789063 2.65679687 -5.95703125 3.02734375 C-8 4 -8 4 -11 5 C-10 2 -10 2 -8.22265625 1.015625 C-7.15337891 0.63664062 -7.15337891 0.63664062 -6.0625 0.25 C-5.35222656 -0.01296875 -4.64195313 -0.2759375 -3.91015625 -0.546875 C-2 -1 -2 -1 0 0 Z " fill="#E4DCE2" transform="translate(74,98)"/>
<path d="M0 0 C1.07894531 0.12761719 2.15789062 0.25523438 3.26953125 0.38671875 C4.35621094 0.50660156 5.44289063 0.62648437 6.5625 0.75 C7.39394531 0.85699219 8.22539063 0.96398438 9.08203125 1.07421875 C9.08203125 1.40421875 9.08203125 1.73421875 9.08203125 2.07421875 C4.13203125 2.40421875 -0.81796875 2.73421875 -5.91796875 3.07421875 C-2.91796875 0.07421875 -2.91796875 0.07421875 0 0 Z " fill="#9B8F98" transform="translate(84.91796875,40.92578125)"/>
<path d="M0 0 C0.66 0.33 1.32 0.66 2 1 C1.34 1.66 0.68 2.32 0 3 C0.33 3.66 0.66 4.32 1 5 C-0.65 5.33 -2.3 5.66 -4 6 C-3.6875 4.125 -3.6875 4.125 -3 2 C-2.01 1.34 -1.02 0.68 0 0 Z " fill="#EAE0E8" transform="translate(39,121)"/>
<path d="M0 0 C0 0.66 0 1.32 0 2 C-2.90600261 3.25664978 -4.79604584 4 -8 4 C-8 3.34 -8 2.68 -8 2 C-4.91190305 0.23537317 -3.76687864 0 0 0 Z " fill="#8A7E85" transform="translate(28,90)"/>
</svg>
